<?xml version="1.0" encoding="UTF-8" standalone="no"?>
<svg
   xmlns:dc="http://purl.org/dc/elements/1.1/"
   xmlns:cc="http://creativecommons.org/ns#"
   xmlns:rdf="http://www.w3.org/1999/02/22-rdf-syntax-ns#"
   xmlns:svg="http://www.w3.org/2000/svg"
   xmlns="http://www.w3.org/2000/svg"
   xmlns:xlink="http://www.w3.org/1999/xlink"
   xmlns:sodipodi="http://sodipodi.sourceforge.net/DTD/sodipodi-0.dtd"
   xmlns:inkscape="http://www.inkscape.org/namespaces/inkscape"
   viewBox="0 0 720 576"
   version="1.1"
   id="svg470"
   sodipodi:docname="newplot.svg"
   inkscape:version="0.92.4 (5da689c313, 2019-01-14)"
   width="7.5in"
   height="6in">
  <metadata
     id="metadata474">
    <rdf:RDF>
      <cc:Work
         rdf:about="">
        <dc:format>image/svg+xml</dc:format>
        <dc:type
           rdf:resource="http://purl.org/dc/dcmitype/StillImage" />
        <dc:title></dc:title>
      </cc:Work>
    </rdf:RDF>
  </metadata>
  <sodipodi:namedview
     pagecolor="#ffffff"
     bordercolor="#666666"
     borderopacity="1"
     objecttolerance="10"
     gridtolerance="10"
     guidetolerance="10"
     inkscape:pageopacity="0"
     inkscape:pageshadow="2"
     inkscape:window-width="1920"
     inkscape:window-height="1017"
     id="namedview472"
     showgrid="false"
     inkscape:zoom="1.5777778"
     inkscape:cx="322.41447"
     inkscape:cy="640.68275"
     inkscape:window-x="1912"
     inkscape:window-y="-8"
     inkscape:window-maximized="1"
     inkscape:current-layer="svg470"
     units="in" />
  <defs
     id="defs322">
    <linearGradient
       inkscape:collect="always"
       id="linearGradient5020">
      <stop
         style="stop-color:#bf2b29;stop-opacity:1"
         offset="0"
         id="stop5016" />
      <stop
         style="stop-color:#d87879;stop-opacity:1"
         offset="1"
         id="stop5018" />
    </linearGradient>
    <style
       type="text/css"
       id="style320"><![CDATA[
    line, polyline, polygon, path, rect, circle {
      fill: none;
      stroke: #000000;
      stroke-linecap: round;
      stroke-linejoin: round;
      stroke-miterlimit: 10.00;
    }
  ]]></style>
    <linearGradient
       inkscape:collect="always"
       xlink:href="#linearGradient5020"
       id="linearGradient5022"
       x1="176.10001"
       y1="66.595001"
       x2="570.64996"
       y2="66.595001"
       gradientUnits="userSpaceOnUse"
       gradientTransform="matrix(0.87071784,0,0,0.8734895,20.282691,48.806456)" />
    <linearGradient
       inkscape:collect="always"
       xlink:href="#linearGradient5020"
       id="linearGradient5030"
       x1="176.10001"
       y1="116.085"
       x2="325.29001"
       y2="116.085"
       gradientUnits="userSpaceOnUse"
       gradientTransform="matrix(0.87071784,0,0,0.8734895,20.282691,48.806456)" />
    <linearGradient
       inkscape:collect="always"
       xlink:href="#linearGradient5020"
       id="linearGradient5038"
       x1="176.10001"
       y1="165.575"
       x2="245.69"
       y2="165.575"
       gradientUnits="userSpaceOnUse"
       gradientTransform="matrix(0.87071784,0,0,0.8734895,20.282691,48.806456)" />
    <linearGradient
       inkscape:collect="always"
       xlink:href="#linearGradient5020"
       id="linearGradient5046"
       x1="176.10001"
       y1="215.075"
       x2="242.74001"
       y2="215.075"
       gradientUnits="userSpaceOnUse"
       gradientTransform="matrix(0.87071784,0,0,0.8734895,20.282691,48.806456)" />
    <linearGradient
       inkscape:collect="always"
       xlink:href="#linearGradient5020"
       id="linearGradient5054"
       x1="176.10001"
       y1="264.565"
       x2="237.05"
       y2="264.565"
       gradientUnits="userSpaceOnUse"
       gradientTransform="matrix(0.87071784,0,0,0.8734895,20.282691,48.806456)" />
    <linearGradient
       inkscape:collect="always"
       xlink:href="#linearGradient5020"
       id="linearGradient5062"
       x1="176.10001"
       y1="314.065"
       x2="234.02"
       y2="314.065"
       gradientUnits="userSpaceOnUse"
       gradientTransform="matrix(0.87071784,0,0,0.8734895,20.282691,48.806456)" />
    <linearGradient
       inkscape:collect="always"
       xlink:href="#linearGradient5020"
       id="linearGradient5070"
       x1="176.10001"
       y1="363.55499"
       x2="218.03999"
       y2="363.55499"
       gradientUnits="userSpaceOnUse"
       gradientTransform="matrix(0.87071784,0,0,0.8734895,20.282691,48.806456)" />
    <linearGradient
       inkscape:collect="always"
       xlink:href="#linearGradient5020"
       id="linearGradient5078"
       x1="176.10001"
       y1="413.04501"
       x2="209.63"
       y2="413.04501"
       gradientUnits="userSpaceOnUse"
       gradientTransform="matrix(0.87071784,0,0,0.8734895,20.282691,48.806456)" />
    <linearGradient
       inkscape:collect="always"
       xlink:href="#linearGradient5020"
       id="linearGradient5086"
       x1="176.10001"
       y1="462.54501"
       x2="207.52"
       y2="462.54501"
       gradientUnits="userSpaceOnUse"
       gradientTransform="matrix(0.87071784,0,0,0.8734895,20.282691,48.806456)" />
    <linearGradient
       inkscape:collect="always"
       xlink:href="#linearGradient5020"
       id="linearGradient5094"
       x1="176.10001"
       y1="512.03497"
       x2="207.34001"
       y2="512.03497"
       gradientUnits="userSpaceOnUse"
       gradientTransform="matrix(0.87071784,0,0,0.8734895,20.282691,48.806456)" />
  </defs>
  <rect
     width="87.071785%"
     height="87.348953%"
     style="fill:#ffffff;stroke:none;stroke-width:0.87210262;stroke-linecap:round;stroke-linejoin:round;stroke-miterlimit:10"
     id="rect324"
     x="20.282686"
     y="48.806458" />
  <rect
     x="28.087219"
     y="69.162819"
     width="626.91687"
     height="503.12997"
     style="fill:#ffffff;stroke:#ffffff;stroke-width:0.93314981;stroke-linecap:round;stroke-linejoin:round;stroke-miterlimit:10"
     id="rect326" />
  <polyline
     points="218.84,541.73 218.84,36.89 "
     style="fill:none;stroke:#ffffff;stroke-width:0.52999997;stroke-linecap:butt;stroke-linejoin:round;stroke-miterlimit:10"
     id="polyline330"
     transform="matrix(0.87071784,0,0,0.87348951,20.282691,48.806457)" />
  <polyline
     points="304.30,541.73 304.30,36.89 "
     style="fill:none;stroke:#ffffff;stroke-width:0.52999997;stroke-linecap:butt;stroke-linejoin:round;stroke-miterlimit:10"
     id="polyline332"
     transform="matrix(0.87071784,0,0,0.87348951,20.282691,48.806457)" />
  <polyline
     points="389.76,541.73 389.76,36.89 "
     style="fill:none;stroke:#ffffff;stroke-width:0.52999997;stroke-linecap:butt;stroke-linejoin:round;stroke-miterlimit:10"
     id="polyline334"
     transform="matrix(0.87071784,0,0,0.87348951,20.282691,48.806457)" />
  <polyline
     points="475.22,541.73 475.22,36.89 "
     style="fill:none;stroke:#ffffff;stroke-width:0.52999997;stroke-linecap:butt;stroke-linejoin:round;stroke-miterlimit:10"
     id="polyline336"
     transform="matrix(0.87071784,0,0,0.87348951,20.282691,48.806457)" />
  <polyline
     points="560.69,541.73 560.69,36.89 "
     style="fill:none;stroke:#ffffff;stroke-width:0.52999997;stroke-linecap:butt;stroke-linejoin:round;stroke-miterlimit:10"
     id="polyline338"
     transform="matrix(0.87071784,0,0,0.87348951,20.282691,48.806457)" />
  <polyline
     points="646.15,541.73 646.15,36.89 "
     style="fill:none;stroke:#ffffff;stroke-width:0.52999997;stroke-linecap:butt;stroke-linejoin:round;stroke-miterlimit:10"
     id="polyline340"
     transform="matrix(0.87071784,0,0,0.87348951,20.282691,48.806457)" />
  <polyline
     points="150.47,512.03 714.52,512.03 "
     style="fill:none;stroke:#ffffff;stroke-width:1.07000005;stroke-linecap:butt;stroke-linejoin:round;stroke-miterlimit:10"
     id="polyline342"
     transform="matrix(0.87071784,0,0,0.87348951,20.282691,48.806457)" />
  <polyline
     points="150.47,462.54 714.52,462.54 "
     style="fill:none;stroke:#ffffff;stroke-width:1.07000005;stroke-linecap:butt;stroke-linejoin:round;stroke-miterlimit:10"
     id="polyline344"
     transform="matrix(0.87071784,0,0,0.87348951,20.282691,48.806457)" />
  <polyline
     points="150.47,413.05 714.52,413.05 "
     style="fill:none;stroke:#ffffff;stroke-width:1.07000005;stroke-linecap:butt;stroke-linejoin:round;stroke-miterlimit:10"
     id="polyline346"
     transform="matrix(0.87071784,0,0,0.87348951,20.282691,48.806457)" />
  <polyline
     points="150.47,363.55 714.52,363.55 "
     style="fill:none;stroke:#ffffff;stroke-width:1.07000005;stroke-linecap:butt;stroke-linejoin:round;stroke-miterlimit:10"
     id="polyline348"
     transform="matrix(0.87071784,0,0,0.87348951,20.282691,48.806457)" />
  <polyline
     points="150.47,314.06 714.52,314.06 "
     style="fill:none;stroke:#ffffff;stroke-width:1.07000005;stroke-linecap:butt;stroke-linejoin:round;stroke-miterlimit:10"
     id="polyline350"
     transform="matrix(0.87071784,0,0,0.87348951,20.282691,48.806457)" />
  <polyline
     points="150.47,264.57 714.52,264.57 "
     style="fill:none;stroke:#ffffff;stroke-width:1.07000005;stroke-linecap:butt;stroke-linejoin:round;stroke-miterlimit:10"
     id="polyline352"
     transform="matrix(0.87071784,0,0,0.87348951,20.282691,48.806457)" />
  <polyline
     points="150.47,215.07 714.52,215.07 "
     style="fill:none;stroke:#ffffff;stroke-width:1.07000005;stroke-linecap:butt;stroke-linejoin:round;stroke-miterlimit:10"
     id="polyline354"
     transform="matrix(0.87071784,0,0,0.87348951,20.282691,48.806457)" />
  <polyline
     points="150.47,165.58 714.52,165.58 "
     style="fill:none;stroke:#ffffff;stroke-width:1.07000005;stroke-linecap:butt;stroke-linejoin:round;stroke-miterlimit:10"
     id="polyline356"
     transform="matrix(0.87071784,0,0,0.87348951,20.282691,48.806457)" />
  <polyline
     points="150.47,116.08 714.52,116.08 "
     style="fill:none;stroke:#ffffff;stroke-width:1.07000005;stroke-linecap:butt;stroke-linejoin:round;stroke-miterlimit:10"
     id="polyline358"
     transform="matrix(0.87071784,0,0,0.87348951,20.282691,48.806457)" />
  <polyline
     points="150.47,66.59 714.52,66.59 "
     style="fill:none;stroke:#ffffff;stroke-width:1.07000005;stroke-linecap:butt;stroke-linejoin:round;stroke-miterlimit:10"
     id="polyline360"
     transform="matrix(0.87071784,0,0,0.87348951,20.282691,48.806457)" />
  <polyline
     points="176.10,541.73 176.10,36.89 "
     style="fill:none;stroke:#ffffff;stroke-width:1.07000005;stroke-linecap:butt;stroke-linejoin:round;stroke-miterlimit:10"
     id="polyline362"
     transform="matrix(0.87071784,0,0,0.87348951,20.282691,48.806457)" />
  <polyline
     points="261.57,541.73 261.57,36.89 "
     style="fill:none;stroke:#ffffff;stroke-width:1.07000005;stroke-linecap:butt;stroke-linejoin:round;stroke-miterlimit:10"
     id="polyline364"
     transform="matrix(0.87071784,0,0,0.87348951,20.282691,48.806457)" />
  <polyline
     points="347.03,541.73 347.03,36.89 "
     style="fill:none;stroke:#ffffff;stroke-width:1.07000005;stroke-linecap:butt;stroke-linejoin:round;stroke-miterlimit:10"
     id="polyline366"
     transform="matrix(0.87071784,0,0,0.87348951,20.282691,48.806457)" />
  <polyline
     points="432.49,541.73 432.49,36.89 "
     style="fill:none;stroke:#ffffff;stroke-width:1.07000005;stroke-linecap:butt;stroke-linejoin:round;stroke-miterlimit:10"
     id="polyline368"
     transform="matrix(0.87071784,0,0,0.87348951,20.282691,48.806457)" />
  <polyline
     points="517.96,541.73 517.96,36.89 "
     style="fill:none;stroke:#ffffff;stroke-width:1.07000005;stroke-linecap:butt;stroke-linejoin:round;stroke-miterlimit:10"
     id="polyline370"
     transform="matrix(0.87071784,0,0,0.87348951,20.282691,48.806457)" />
  <polyline
     points="603.42,541.73 603.42,36.89 "
     style="fill:none;stroke:#ffffff;stroke-width:1.07000005;stroke-linecap:butt;stroke-linejoin:round;stroke-miterlimit:10"
     id="polyline372"
     transform="matrix(0.87071784,0,0,0.87348951,20.282691,48.806457)" />
  <polyline
     points="688.88,541.73 688.88,36.89 "
     style="fill:none;stroke:#ffffff;stroke-width:1.07000005;stroke-linecap:butt;stroke-linejoin:round;stroke-miterlimit:10"
     id="polyline374"
     transform="matrix(0.87071784,0,0,0.87348951,252.85761,138.06129)" />
  <path
     style="opacity:0.68399999;fill:#d2d2d2;fill-opacity:0.80193242;stroke:#d2d2d2;stroke-width:1.62035704;stroke-linecap:round;stroke-linejoin:round;stroke-miterlimit:10;stroke-dasharray:none;stroke-opacity:0.71980681"
     d="m 897.30851,589.00169 c 0,-5.43022 0.53687,-6.51947 3.21327,-6.51947 2.27279,0 3.21327,1.08925 3.21327,3.72155 0,2.04686 -1.44597,4.98059 -3.21327,6.51944 -3.13608,2.73072 -3.21327,2.64132 -3.21327,-3.72152 z m 4.81991,-1.61789 c 0,-1.79724 -0.72298,-3.26772 -1.60664,-3.26772 -0.88365,0 -1.60663,1.47048 -1.60663,3.26772 0,1.79725 0.72298,3.26773 1.60663,3.26773 0.88366,0 1.60664,-1.47048 1.60664,-3.26773 z m -60.98809,2.52928 c -1.06481,-1.30477 -1.5987,-3.69428 -1.18642,-5.31004 0.5745,-2.25147 0.79317,-2.05643 0.936,0.83487 0.11889,2.4076 0.8575,3.35081 2.04124,2.60681 1.14923,-0.7223 1.41876,-0.4482 0.70849,0.7205 -0.6861,1.12898 -0.10267,1.88631 1.45322,1.88631 1.55588,0 2.13933,-0.75733 1.45322,-1.88631 -0.71026,-1.1687 -0.44073,-1.4428 0.70849,-0.7205 1.18374,0.744 1.92232,-0.19921 2.04126,-2.60681 0.14282,-2.8913 0.36148,-3.08634 0.93598,-0.83487 0.84407,3.3079 -2.08213,7.68236 -5.13895,7.68236 -1.10907,0 -2.88771,-1.06753 -3.95253,-2.37232 z m 16.3718,-4.15015 c -0.8954,-3.58736 -0.98333,-6.1173 -0.19543,-5.6221 0.78792,0.4952 1.43257,2.32748 1.43257,4.07168 0,1.74422 0.72297,3.17129 1.60663,3.17129 0.88364,0 1.60663,1.10286 1.60663,2.4508 0,4.90524 -2.86374,2.28519 -4.4504,-4.07167 z m 8.63888,3.93804 c -1.42495,-3.7763 -1.3186,-3.94011 2.63972,-4.06587 3.46811,-0.11012 3.48443,-0.17596 0.40165,-1.61998 -3.01117,-1.4105 -3.01956,-1.48033 -0.13318,-1.11056 4.57435,0.58603 5.14739,4.46912 0.66868,4.53121 -3.64244,0.0504 -3.66032,0.12008 -0.63012,2.45078 2.52666,1.94346 2.63555,2.39885 0.57355,2.39885 -1.39982,0 -2.98399,-1.163 -3.52034,-2.58443 z m 8.90533,-1.90869 c -0.22785,-5.02603 0.06,-5.31006 5.38251,-5.31006 5.32244,0 5.61033,0.28403 5.38249,5.31006 -0.22407,4.94231 -0.28708,4.99889 -0.91002,0.81693 -0.36814,-2.47122 -1.29627,-4.49313 -2.06253,-4.49313 -0.76627,0 -1.69438,2.02191 -2.06252,4.49313 l -0.6693,4.49312 -0.24072,-4.49312 c -0.13239,-2.47122 -0.91569,-4.49313 -1.74066,-4.49313 -0.82495,0 -1.80109,2.02191 -2.16922,4.49313 -0.62297,4.18196 -0.68596,4.12538 -0.91003,-0.81693 z m 13.60717,3.17435 c -0.44079,-0.72531 -0.59591,-2.74721 -0.34469,-4.49312 0.55484,-3.85591 5.77642,-5.35674 5.77642,-1.66029 0,1.41381 -1.08448,2.57058 -2.40995,2.57058 -1.32547,0 -2.40995,0.81389 -2.40995,1.80867 0,0.99476 1.08448,1.38547 2.40995,0.8682 1.32547,-0.51725 2.40995,-0.22828 2.40995,0.64214 0,1.91094 -4.30365,2.11999 -5.43173,0.26382 z m 17.49287,-0.2964 c -0.56287,-0.92616 0.0821,-1.20005 1.51182,-0.64211 1.37137,0.53517 2.49339,0.23779 2.49339,-0.66084 0,-0.89863 -1.13028,-2.07495 -2.51178,-2.61405 -2.81057,-1.0968 -1.65206,-4.27101 1.55879,-4.27101 1.19916,0 2.12831,2.06296 2.20768,4.90158 0.13479,4.82201 -3.09882,6.84243 -5.2599,3.28643 z m 13.10949,0.52592 c -0.58909,-0.59907 -1.07112,-2.80479 -1.07112,-4.90158 0,-2.7231 0.91809,-3.81235 3.21328,-3.81235 1.76734,0 3.21329,0.71217 3.21329,1.58259 0,0.8704 -1.08449,1.15937 -2.40993,0.64212 -1.69501,-0.66144 -2.41,0.13268 -2.41,2.67687 0,2.54416 0.71499,3.33833 2.41,2.67687 1.32544,-0.51725 2.40993,-0.22828 2.40993,0.64214 0,1.79733 -3.73491,2.14138 -5.35545,0.49334 z m 7.54305,-1.36155 c -1.29139,-3.42239 0.46737,-7.35238 3.29042,-7.35238 3.22368,0 4.57473,2.63852 3.35392,6.55007 -1.19315,3.82294 -5.31663,4.32087 -6.64434,0.80231 z m 5.56175,-2.99466 c 0.30742,-1.61222 -0.51212,-2.72386 -2.00836,-2.72386 -1.49032,0 -2.5277,1.39694 -2.5277,3.40387 0,3.98181 3.75435,3.41898 4.53606,-0.68001 z m 3.73779,0.95234 c -0.2278,-5.02603 0.0599,-5.31006 5.3825,-5.31006 5.32247,0 5.61037,0.28403 5.38249,5.31006 -0.22399,4.94231 -0.28705,4.99889 -0.90996,0.81693 -0.36812,-2.47122 -1.29625,-4.49313 -2.06253,-4.49313 -0.76627,0 -1.6944,2.02191 -2.06254,4.49313 l -0.66933,4.49312 -0.2407,-4.49312 c -0.13237,-2.47122 -0.91567,-4.49313 -1.7406,-4.49313 -0.82502,0 -1.80116,2.02191 -2.16929,4.49313 -0.62291,4.18196 -0.68598,4.12538 -0.91004,-0.81693 z m -74.14593,-4.39671 c 0,-1.29488 0.65556,-2.76638 1.4568,-3.26997 0.80126,-0.50358 1.07841,0.55587 0.61594,2.35437 -0.98102,3.81504 -2.07274,4.2973 -2.07274,0.9156 z m -18.2946,-1.21231 c 0.464,-0.7635 1.51668,-0.96522 2.33927,-0.44819 2.10209,1.32117 1.86541,1.8364 -0.84365,1.8364 -1.28662,0 -1.95964,-0.6247 -1.49562,-1.38821 z M 447.45061,563.84608 c 0,-0.36502 3.61493,-3.30474 8.03317,-6.53273 l 8.03318,-5.86907 v 5.21113 c 0,4.93283 -0.12595,5.04178 -2.35886,2.03963 -1.29736,-1.74434 -2.38184,-2.41101 -2.40995,-1.48148 -0.0731,2.42086 -11.29754,9.01041 -11.29754,6.63252 z m 199.2228,-25.27807 c 0,-1.68722 -1.06545,-3.96689 -2.36764,-5.06592 -2.08402,-1.75889 -2.07614,-2.57157 0.0657,-6.78351 2.41449,-4.7482 1.97505,-7.95697 -1.08969,-7.95697 -0.87745,0 -2.35148,2.20571 -3.27559,4.90159 -0.96976,2.82894 -2.82413,4.90158 -4.38545,4.90158 -1.48787,0 -8.2582,-3.36067 -15.0452,-7.46818 -14.45633,-8.74892 -18.88792,-14.80475 -18.88792,-25.81036 0,-4.53985 -0.72698,-7.56801 -1.81686,-7.56801 -3.09923,0 -0.30721,-11.1569 4.13579,-16.52658 2.25918,-2.73038 4.10759,-5.96875 4.10759,-7.19639 0,-4.56971 -6.74731,-13.63832 -12.05193,-16.19817 -3.0165,-1.45568 -5.91942,-3.36227 -6.45095,-4.23686 -0.5315,-0.87455 -3.14137,-1.59013 -5.79973,-1.59013 -4.15928,0 -4.68591,0.47246 -3.77604,3.38771 0.70464,2.25782 0.13703,4.07202 -1.70181,5.4394 -2.23372,1.661 -2.41443,2.7066 -0.94902,5.49111 2.771,5.26541 2.05685,6.53634 -1.34319,2.39039 -1.67547,-2.04306 -3.63962,-3.61027 -4.36479,-3.4827 -3.23197,0.56859 -4.32678,-0.33687 -2.12179,-1.75482 2.11217,-1.35824 2.06981,-1.89572 -0.34262,-4.3497 -2.99562,-3.04721 -2.56984,-3.47031 -5.26926,5.23613 -0.43557,1.4049 -1.60088,2.04594 -2.58957,1.42455 -0.98869,-0.6214 -2.32141,-0.26792 -2.96162,0.78552 -0.64022,1.05344 -1.26514,-0.82007 -1.38873,-4.16331 -0.36087,-9.76138 -6.08011,-11.67751 -11.54773,-3.86883 -2.38523,3.40653 -2.78613,4.91675 -1.31436,4.95128 1.326,0.031 1.06657,0.67225 -0.69392,1.71504 -1.54639,0.91594 -2.81162,2.67209 -2.81162,3.90255 0,1.23048 -1.0558,4.31869 -2.34622,6.86273 -1.29045,2.54405 -2.73002,6.46363 -3.19908,8.7102 -1.48209,7.09849 -3.24404,8.74714 -7.10347,6.64663 -4.05932,-2.20929 -4.6623,-10.09758 -1.00764,-13.18209 1.32548,-1.11869 2.40996,-4.10627 2.40996,-6.63908 0,-2.53279 0.70518,-5.0483 1.56707,-5.59001 0.86189,-0.54171 1.3066,-3.25986 0.98826,-6.04033 -0.93629,-8.17771 4.27461,-15.26531 13.47269,-18.32483 4.32958,-1.44014 9.63579,-2.61843 11.7916,-2.61843 4.52105,0 8.18139,-3.5637 5.99744,-5.83908 -0.8682,-0.90458 -0.5609,-3.64929 0.76399,-6.82335 1.69713,-4.06592 3.2026,-5.31005 6.42535,-5.31005 4.68086,0 9.55409,-3.97168 8.00359,-6.52292 -0.55031,-0.90551 -0.26035,-1.64638 0.64437,-1.64638 0.90471,0 2.51448,1.65231 3.57729,3.67184 1.19092,2.26297 2.18866,2.88987 2.60036,1.63386 1.84298,-5.62264 8.08966,2.23299 9.27737,11.66693 0.78859,6.26362 -1.81587,12.43688 -5.24702,12.43688 -1.11292,0 -2.02348,1.16015 -2.02348,2.57809 0,1.83354 1.90961,0.91587 6.61196,-3.17738 3.63657,-3.16553 8.47367,-5.97997 10.74911,-6.25429 3.47351,-0.4188 4.45346,-1.76586 6.10933,-8.39796 1.08472,-4.34454 2.4019,-8.33611 2.92706,-8.87018 0.52518,-0.53406 3.18561,0.70618 5.91207,2.75613 3.04637,2.29043 5.53163,3.14303 6.44734,2.21181 0.81955,-0.83344 1.71582,-6.19923 1.99172,-11.92399 0.2759,-5.72478 1.22301,-10.6532 2.10468,-10.95208 0.8817,-0.29886 3.49509,1.38071 5.80756,3.73237 4.49646,4.57264 8.36245,3.9713 7.05889,-1.09797 -0.87486,-3.40212 1.30884,-5.7401 2.90627,-3.11162 1.70176,2.80017 7.03594,1.84495 8.83997,-1.58303 1.27838,-2.42916 0.91884,-6.37212 -1.43197,-15.70414 -1.97849,-7.85411 -2.65856,-13.7522 -1.83954,-15.95436 1.23768,-3.32789 1.44176,-3.24249 4.3001,1.79937 1.65038,2.91121 5.02869,6.29673 7.50728,7.52339 2.47863,1.22666 5.73628,4.72669 7.23923,7.7778 1.7139,3.47935 3.81227,5.457 5.62855,5.30472 2.09077,-0.17529 2.7695,0.73785 2.44134,3.28447 -0.24999,1.94002 0.79236,5.33763 2.31632,7.55027 3.82401,5.55205 3.48084,8.66373 -1.51594,13.74518 -4.63445,4.71297 -3.89514,6.87342 2.68015,7.83208 2.28008,0.33245 3.82209,1.51543 3.56671,2.73627 -1.65234,7.89905 -1.38309,11.6596 0.83479,11.6596 1.72118,0 2.10478,1.12245 1.3959,4.08465 -0.53762,2.24655 -1.37377,5.74614 -1.85812,7.77683 -0.5865,2.45904 0.30061,4.98158 2.65615,7.55281 2.76284,3.01582 3.59388,6.05138 3.79769,13.87184 0.27842,10.68415 -3.26293,21.12139 -6.73569,19.85182 -1.08119,-0.39526 -2.65706,0.53747 -3.50193,2.07273 -0.84486,1.53529 -2.12919,2.7914 -2.85409,2.7914 -0.72491,0 -1.02156,0.73525 -0.65925,1.63387 2.81604,6.98433 1.44769,23.51932 -1.54786,18.70421 -0.80939,-1.30108 -1.48271,-5.76794 -1.49623,-9.92639 -0.0161,-4.73105 -0.93448,-8.32872 -2.45577,-9.61266 -1.33713,-1.12852 -2.31063,-2.87284 -2.16331,-3.87623 0.14733,-1.00341 -0.92763,-4.55791 -2.38876,-7.89887 -1.46112,-3.34099 -2.65658,-6.83337 -2.65658,-7.76084 0,-0.92752 -0.57838,-1.68635 -1.2853,-1.68635 -2.50043,0 -5.14123,3.97077 -5.14123,7.73042 0,2.09505 -1.11143,4.24287 -2.46983,4.77299 -4.92425,1.92163 -9.97584,21.80769 -5.53975,21.80769 2.54258,0 7.70713,9.68273 8.85731,16.60607 0.87745,5.28156 0.12692,7.92002 -4.80243,16.88398 -5.87267,10.67929 -8.89839,13.24874 -8.89839,7.55655 z M 500.46957,526.92673 c 0,-1.08728 -2.4407,-1.45389 -6.42652,-0.96531 -7.58256,0.92945 -8.79559,-2.09054 -2.26694,-5.64379 3.64974,-1.98638 4.33855,-1.93872 5.61943,0.38888 0.85953,1.56192 2.70815,2.3208 4.49556,1.84547 4.31223,-1.14679 5.73727,2.23157 1.83674,4.35445 -2.30745,1.25583 -3.25827,1.26176 -3.25827,0.0204 z m -26.28716,-17.15137 c 0.50864,-1.34792 1.20892,-2.45079 1.55622,-2.45079 0.34726,0 0.63142,1.10287 0.63142,2.45079 0,1.34795 -0.7003,2.4508 -1.55622,2.4508 -0.85591,0 -1.14005,-1.10285 -0.63142,-2.4508 z m 49.67448,-9.34978 c -3.38087,-4.90864 -3.22308,-5.47132 2.17122,-7.74357 3.90268,-1.64392 5.34694,-1.51855 8.76819,0.76109 l 4.09591,2.72923 -4.18288,3.94227 c -5.18972,4.89117 -7.64927,4.96165 -10.85244,0.31098 z m 138.49226,-20.87665 c -1.77628,-6.1899 -1.55837,-9.17099 0.51621,-7.06126 0.95273,0.96888 1.49007,3.87306 1.19407,6.45375 l -0.53814,4.69215 z m -262.29429,-1.63386 c 0.54613,-0.89862 1.3118,-1.63386 1.70146,-1.63386 0.38968,0 0.70849,0.73524 0.70849,1.63386 0,0.89862 -0.76564,1.63386 -1.70144,1.63386 -0.9358,0 -1.25462,-0.73524 -0.70851,-1.63386 z m 156.64696,-15.11322 c 0,-1.27307 1.10455,-2.31466 2.45458,-2.31466 2.77744,0 2.36628,2.99511 -0.5467,3.98255 -1.04935,0.3557 -1.90788,-0.39485 -1.90788,-1.66789 z M 347.11264,439.92778 c -0.6731,-1.57259 -0.6731,-4.14593 0,-5.71852 1.16558,-2.72311 1.25589,-2.72311 1.89634,0 0.36985,1.57259 0.36985,4.14593 0,5.71852 -0.64045,2.72311 -0.73076,2.72311 -1.89634,0 z m 10.49324,-16.88323 c 0.077,-1.90337 0.4578,-2.29052 0.97066,-0.98713 0.4641,1.17943 0.40705,2.58865 -0.12676,3.13157 -0.5339,0.54291 -0.9136,-0.42209 -0.84384,-2.14444 z m -1.73846,-10.46635 c 1.5434,-5.47263 4.36854,-10.98095 6.01144,-11.72072 0.67287,-0.30296 3.30114,-3.66272 5.84062,-7.46613 2.53949,-3.8034 5.25069,-6.51714 6.02488,-6.03054 0.77422,0.48657 1.40766,-0.1715 1.40766,-1.46246 0,-2.65501 2.87377,-5.48175 6.3938,-6.28918 1.30139,-0.2985 3.1064,-1.28048 4.01108,-2.18216 2.91172,-2.90202 19.6356,-26.01345 21.57287,-29.81243 1.03106,-2.02189 3.01801,-3.67619 4.41547,-3.67619 1.74981,0 2.2792,-1.0173 1.70051,-3.26773 -0.56324,-2.19033 -0.0494,-3.26772 1.5588,-3.26772 1.31952,0 3.22326,-2.22039 4.23053,-4.93421 1.00728,-2.71382 2.68401,-4.60148 3.72608,-4.19484 2.24507,0.87613 7.50599,-4.53327 5.94888,-6.11674 -0.59102,-0.60107 -0.15203,-1.09282 0.97558,-1.09282 2.14944,0 1.78032,-7.51971 -0.68171,-13.88782 -0.69483,-1.79725 0.64097,-0.73535 2.96846,2.35974 3.59445,4.77994 4.23179,5.11387 4.23179,2.21715 0,-1.8757 -1.07844,-3.83121 -2.39655,-4.34559 -1.37306,-0.53582 -2.25672,-2.65351 -2.06912,-4.95858 0.18008,-2.21286 0.89706,-3.66538 1.59323,-3.22783 0.6962,0.43757 1.27687,-2.00495 1.2904,-5.42782 0.0128,-3.42287 0.72546,-7.32627 1.58204,-8.67422 0.8566,-1.34792 1.56851,-2.07831 1.58204,-1.62308 0.0127,0.45526 0.70112,3.22659 1.52798,6.15852 0.82685,2.93194 0.92096,4.96474 0.20913,4.51734 -0.71185,-0.44738 -1.37537,2.84701 -1.47448,7.32087 -0.0991,4.47385 0.38042,8.13428 1.06561,8.13428 0.68518,0 2.0662,3.12477 3.06891,6.94392 1.53142,5.83293 1.41616,7.40138 -0.72041,9.80318 -1.39894,1.57258 -3.7654,2.85925 -5.25878,2.85925 -3.48939,0 -7.49295,4.53705 -8.8368,10.01434 -0.81904,3.33832 -2.72701,4.83515 -8.56001,6.71552 -7.20565,2.32285 -7.56757,2.73938 -9.04378,10.40892 -0.84573,4.39408 -2.12349,8.72448 -2.83944,9.6231 -0.71594,0.89864 -2.92274,4.2072 -4.90401,7.35239 -1.98127,3.14518 -5.92152,6.82137 -8.75609,8.16931 -2.94887,1.40227 -5.83432,4.39189 -6.7445,6.98794 -2.01886,5.75825 -12.48207,15.88612 -16.41216,15.88612 -1.64369,0 -2.98852,0.97226 -2.98852,2.16057 0,1.18831 -2.81481,4.03471 -6.25514,6.32531 l -6.25514,4.16476 z m 205.84943,-28.09203 c -0.77769,-2.08225 -1.6903,-5.24791 -2.028,-7.03486 -0.33769,-1.78691 -2.05166,-3.51711 -3.80879,-3.84485 -4.60553,-0.85904 -7.97568,-4.361 -11.20461,-11.64283 -3.7271,-8.40525 -2.31651,-14.75752 3.27702,-14.75752 2.22336,0 5.77061,-1.1515 7.88275,-2.55886 3.40076,-2.26603 3.76235,-3.51227 3.15955,-10.88956 -0.37439,-4.58188 -1.04503,-8.70119 -1.49032,-9.15403 -0.44531,-0.45285 0.34379,-2.11947 1.75351,-3.7036 1.40974,-1.58414 2.8097,-5.57795 3.11104,-8.87516 0.30133,-3.29718 0.77621,-6.14388 1.05527,-6.32596 6.58587,-4.29732 18.13903,-3.03681 19.72676,2.1523 0.78947,2.58017 -1.66247,11.06688 -4.99758,17.29774 -0.96199,1.79725 -2.26771,6.18327 -2.9016,9.7467 -0.63388,3.56346 -2.11252,8.36687 -3.28584,10.67431 -3.44682,6.77836 -3.65778,19.77121 -0.39723,24.46528 4.9694,7.15423 2.8068,14.84003 -4.82425,17.14519 -2.83341,0.85589 -3.91899,0.27413 -5.02768,-2.69429 z m 62.43142,-0.55766 c -1.11777,-1.36965 -1.59894,-2.93094 -1.06933,-3.46954 1.6453,-1.67317 5.92147,0.82385 5.92147,3.45776 0,3.2001 -2.24571,3.20556 -4.85214,0.0114 z m -42.43957,-0.60623 c -0.48888,-0.80445 0.37217,-1.95478 1.91349,-2.55625 3.79173,-1.47968 4.15177,-1.35962 4.56782,1.52321 0.38761,2.68565 -4.95903,3.53786 -6.48131,1.03304 z m -5.13862,-19.77755 c 1.45107,-14.63766 1.98493,-16.60146 8.22309,-30.24833 3.28069,-7.17696 6.96826,-15.25472 8.19462,-17.95059 1.22634,-2.69587 3.03971,-8.9454 4.0297,-13.88782 3.0017,-14.98588 4.27531,-12.64821 3.9581,7.26506 l -0.30168,18.93835 -5.91683,6.16208 c -4.19874,4.37275 -7.15417,9.93838 -10.17804,19.16706 -2.34366,7.15275 -5.30488,14.47547 -6.5805,16.27271 -2.09888,2.95717 -2.23463,2.4137 -1.42846,-5.71852 z m 15.87936,-0.64055 c 3.25014,-2.50901 3.65662,-5.33615 0.90153,-6.27008 -1.08818,-0.36887 1.45727,-4.27577 5.91555,-9.07948 7.80743,-8.4124 14.11902,-10.66803 15.98842,-5.71391 0.43535,1.15372 1.71796,2.10002 2.85026,2.10287 1.31652,0.003 2.08694,2.35941 2.13698,6.53544 0.0434,3.62288 -0.69172,6.53027 -1.65124,6.53027 -0.95121,0 -3.04089,1.55754 -4.6437,3.46121 -2.44489,2.90381 -4.19191,3.33637 -10.84828,2.68593 -4.36372,-0.4264 -8.31659,-0.14591 -8.78412,0.62345 -0.46753,0.76929 -1.71112,1.37533 -2.76353,1.34675 -1.05642,-0.0287 -0.65416,-1.02412 0.89813,-2.22245 z m 76.71686,-2.53074 c 0,-3.94508 0.89346,-4.34306 2.16789,-0.96569 0.49776,1.31916 0.21363,2.83303 -0.63142,3.36415 -0.84507,0.53113 -1.53647,-0.54818 -1.53647,-2.39846 z m 5.22157,-4.44623 c -2.37738,-0.97553 -2.60661,-6.88525 -0.40167,-10.35495 1.38439,-2.17848 1.57484,-2.17848 1.71415,0 0.0863,1.34793 0.48348,4.47269 0.88287,6.9439 0.3994,2.47122 0.52069,4.43507 0.26954,4.36414 -0.25114,-0.0709 -1.36034,-0.49983 -2.46489,-0.95309 z m -31.48729,-11.44365 c -1.63323,-2.22 -2.59472,-4.4175 -2.13668,-4.88333 0.45806,-0.46581 2.07303,1.07789 3.5888,3.43045 3.57481,5.54831 2.41472,6.70899 -1.45212,1.45288 z m 14.21594,1.0887 c -0.54613,-0.89862 -0.45061,-1.63387 0.21225,-1.63387 0.66287,0 -0.12692,-0.99062 -1.75519,-2.2014 -2.08199,-1.54818 -2.40369,-2.55129 -1.08419,-3.38062 1.03192,-0.64856 1.47087,-1.84621 0.97543,-2.66144 -0.49544,-0.81523 0.20621,-3.52158 1.55919,-6.01409 l 2.46004,-4.53186 -0.1176,5.71853 c -0.0648,3.14516 0.25368,8.10802 0.70752,11.02856 0.78908,5.0778 -0.85992,7.12755 -2.95742,3.67619 z m -23.2962,-4.08465 c -1.10006,-1.34795 -3.07442,-2.4508 -4.38749,-2.4508 -1.76776,0 -2.11575,-1.10072 -1.34074,-4.24094 0.57569,-2.33251 0.3307,-5.11826 -0.54439,-6.19054 -1.05313,-1.29047 -1.01532,-4.25632 0.11182,-8.77226 1.44111,-5.77373 1.24056,-7.62774 -1.30444,-12.05925 -3.34911,-5.83167 -6.99449,-7.94373 -6.99449,-4.05247 0,1.51491 -0.91511,2.17855 -2.27327,1.64854 -1.45932,-0.56948 -2.52899,-4.2074 -2.98746,-10.16034 -0.3928,-5.10028 -1.29079,-11.11135 -1.99555,-13.3579 -1.27741,-4.0721 -1.27069,-4.07508 2.18415,-0.97217 1.90601,1.71187 3.51132,2.4471 3.56733,1.63385 0.056,-0.81325 0.75571,0.17567 1.55487,2.19757 1.67531,4.23862 5.09559,4.76362 7.98311,1.2254 1.10004,-1.34794 3.35753,-2.45079 5.01662,-2.45079 1.65912,0 3.01656,-0.73524 3.01656,-1.63386 0,-0.89863 -1.00714,-1.63387 -2.23806,-1.63387 -1.23094,0 -2.66862,-1.14104 -3.19488,-2.53565 -0.52623,-1.39461 -0.38832,-2.17837 0.30648,-1.74166 1.96053,1.23219 4.57944,-1.06997 5.8215,-5.11739 0.8368,-2.72687 0.48371,-3.67619 -1.36729,-3.67619 -1.37248,0 -4.40923,-2.94095 -6.74832,-6.53545 -2.33909,-3.5945 -5.19206,-6.53544 -6.33993,-6.53544 -2.62983,0 -7.93708,-7.61012 -9.29457,-13.32758 -0.56692,-2.38773 -1.43077,-5.40141 -1.91967,-6.69704 -0.73339,-1.94358 0.44659,-2.14959 6.74474,-1.17756 4.19851,0.64796 9.4756,0.65382 11.72686,0.0131 9.83785,-2.80028 20.46812,1.63666 18.21661,7.60337 -0.43018,1.14005 1.0962,2.94314 3.392,4.0069 4.28826,1.98698 5.23531,3.81752 2.77504,5.36382 -2.48669,1.56289 -0.83679,26.68606 2.04641,31.16095 1.72037,2.67013 2.26047,5.58341 1.56073,8.41864 -0.71782,2.90853 -0.50063,3.97767 0.65991,3.24829 0.95146,-0.598 2.18407,-0.34004 2.73909,0.57324 0.56264,0.92579 -0.63226,1.75076 -2.7006,1.86449 -12.71365,0.69908 -13.35749,0.58345 -14.20105,-2.55032 -0.85359,-3.17103 -9.59163,-6.85861 -9.59163,-4.04786 0,0.82091 0.82014,1.49256 1.8225,1.49256 1.25944,0 1.57752,3.48223 1.02952,11.27088 -0.67451,9.58699 -0.34671,11.65948 2.19409,13.87184 1.65895,1.4445 2.98705,4.74452 2.98705,7.4221 0,2.65164 0.72299,5.27555 1.60664,5.83092 2.62674,1.65093 1.91583,6.1888 -0.80331,5.12767 -1.32548,-0.51725 -2.43559,-0.0445 -2.4669,1.05059 -0.0313,1.09508 -1.15856,0.15292 -2.505,-2.0936 -2.36773,-3.95058 -2.4196,-3.82991 -1.58044,3.67619 0.94489,8.45186 0.71534,8.98549 -2.28415,5.31006 z M 447.47521,323.92358 c 0.0453,-3.74912 2.6109,-6.24988 5.32542,-5.19058 3.39794,1.32601 3.37389,2.2548 -0.12837,4.9585 -3.56578,2.75268 -5.22821,2.82692 -5.19697,0.23208 z m 78.6576,-1.92751 c 0.8163,-2.18341 1.06629,-6.58862 0.55555,-9.78935 -0.51076,-3.20072 -0.19198,-6.74476 0.70836,-7.87566 0.90036,-1.13086 2.15408,-9.55901 2.78607,-18.72919 l 1.14905,-16.67306 -4.00079,-1.02115 c -2.9616,-0.75591 -3.79123,-1.8361 -3.19398,-4.15868 0.88101,-3.42613 2.87814,-4.08783 4.46366,-1.47893 0.5544,0.91224 3.41987,2.68343 6.36768,3.93598 2.94783,1.25257 7.66127,4.72658 10.47431,7.72005 4.88947,5.20307 5.21233,5.30683 7.33334,2.35705 1.86468,-2.59332 2.62288,-2.74453 4.75197,-0.94761 1.3933,1.17594 2.16158,3.12313 1.70727,4.32708 -1.05174,2.78732 -0.22839,2.75056 5.46593,-0.24399 l 4.62657,-2.43303 -0.70639,7.33568 c -0.77135,8.01034 -4.19375,13.32857 -10.09119,15.68115 -2.77598,1.10737 -3.56478,2.40845 -2.93796,4.84598 0.62248,2.4208 -0.20716,3.82521 -3.03338,5.13474 -2.13964,0.9914 -3.89023,2.41977 -3.89023,3.17416 0,0.75437 -1.48189,1.37159 -3.29306,1.37159 -4.39465,0 -13.06704,4.65409 -15.67602,8.41261 -3.05915,4.40705 -5.34165,3.80206 -3.56676,-0.94542 z m 20.33394,2.67833 c -1.02403,-1.68497 3.78851,-11.77939 5.61584,-11.77939 1.92783,0 1.77063,6.05732 -0.2572,9.91059 -1.73182,3.29075 -4.01134,4.08572 -5.35864,1.8688 z m 64.16064,-7.35673 c 0.60334,-1.61135 1.5017,-2.51815 1.99638,-2.01509 0.49466,0.50305 7.6e-4,1.82141 -1.09698,2.92972 -1.58675,1.60162 -1.77128,1.41396 -0.8994,-0.91463 z m 3.91329,-1.15493 c 0,-0.89863 0.723,-1.63386 1.60663,-1.63386 0.88366,0 1.60665,0.73523 1.60665,1.63386 0,0.89862 -0.72299,1.63387 -1.60665,1.63387 -0.88363,0 -1.60663,-0.73525 -1.60663,-1.63387 z m 47.40713,-3.24901 c -0.56287,-0.92618 0.0821,-1.20009 1.51181,-0.64212 2.78336,1.08616 3.29262,2.25727 0.98159,2.25727 -0.83149,0 -1.95354,-0.72683 -2.4934,-1.61515 z m -72.08765,-20.44198 c -0.50864,-1.34794 -0.22449,-2.4508 0.63141,-2.4508 0.85592,0 1.55622,1.10286 1.55622,2.4508 0,1.34793 -0.28415,2.45079 -0.63141,2.45079 -0.34731,0 -1.04757,-1.10286 -1.55622,-2.45079 z M 448.32254,281.96454 c -0.5084,-0.83653 -0.18956,-1.98278 0.7085,-2.54722 0.89806,-0.56442 1.63284,0.11992 1.63284,1.52097 0,2.86992 -0.96408,3.29248 -2.34134,1.02625 z m 166.41811,-6.03762 c -2.37388,-5.2983 -2.32593,-5.51231 1.23479,-5.51231 4.55898,0 6.83409,7.10076 2.7818,8.68212 -1.30644,0.50982 -2.94865,-0.78616 -4.01659,-3.16981 z m -159.03807,-7.65106 c -0.12034,-1.62563 -0.85958,-2.55296 -1.64277,-2.0607 -1.49565,0.94002 -3.83558,-5.70124 -2.49065,-7.06898 1.78812,-1.81839 5.74907,4.58112 5.07543,8.2001 -0.47488,2.5512 -0.79835,2.87039 -0.94201,0.92958 z m 142.08899,-4.4938 c -1.70099,-1.74383 -4.0507,-3.17062 -5.22157,-3.17062 -1.17086,0 -2.12885,-0.76501 -2.12885,-1.70003 0,-3.29049 -7.06494,-11.37086 -9.94195,-11.37086 -1.60112,0 -2.91473,0.55143 -2.91911,1.22539 -0.005,0.67396 -1.77242,3.43111 -3.92896,6.12699 -3.80946,4.76215 -3.89403,4.78538 -2.97324,0.81693 0.52124,-2.24656 1.74706,-5.12328 2.72398,-6.39269 1.31086,-1.70331 1.27371,-2.48011 -0.14187,-2.96482 -2.1954,-0.75177 -1.1322,-4.58583 2.67529,-9.6476 2.18864,-2.90961 3.06987,-3.14908 5.34974,-1.45373 1.50122,1.11631 2.72951,2.86766 2.72951,3.89187 0,1.02422 1.03576,1.86221 2.30167,1.86221 1.26593,0 2.76396,1.48114 3.32896,3.29145 0.56498,1.81029 1.64288,2.90452 2.39536,2.43157 2.11685,-1.33044 7.63677,7.58327 8.88451,14.34695 1.27539,6.91367 1.10953,7.05694 -3.13357,2.70699 z m -142.55786,-9.96038 c -1.62975,-1.65736 -3.01851,-3.56484 -3.08612,-4.23881 -0.0675,-0.67396 -0.36563,-2.51555 -0.6623,-4.09243 -0.60012,-3.19024 1.21707,-2.53734 6.59009,2.36775 1.86718,1.70458 4.39763,2.88189 5.62322,2.61619 1.29029,-0.27969 2.22832,0.83551 2.22832,2.64927 0,4.22231 -6.7917,4.66565 -10.69321,0.69803 z m 71.85638,-6.46381 c 0.60717,-0.9991 0.10764,-2.44712 -1.11017,-3.21787 -1.80143,-1.14015 -1.83981,-2.01558 -0.20583,-4.69674 1.10456,-1.81248 2.00829,-4.69719 2.00829,-6.4105 0,-1.7133 1.14177,-3.56064 2.53726,-4.10521 2.04316,-0.79733 2.36674,-0.11551 1.66158,3.50137 -0.48161,2.47034 -1.34236,7.24868 -1.91275,10.61851 -0.57038,3.36984 -1.72226,6.12698 -2.55971,6.12698 -0.83745,0 -1.02586,-0.81744 -0.41867,-1.81654 z m -31.98353,-2.36854 c 0.45273,-1.19974 -0.68585,-3.82849 -2.53016,-5.84166 -1.8443,-2.0132 -3.35328,-5.30728 -3.35328,-7.32018 0,-2.01294 -1.08195,-4.7602 -2.40439,-6.10502 -1.32242,-1.34482 -2.7329,-5.05443 -3.1344,-8.24355 -0.86901,-6.90249 -3.57597,-12.48813 -7.38569,-15.23992 -1.52608,-1.10233 -3.22618,-3.83352 -3.77798,-6.06931 -0.71727,-2.9063 -1.74808,-3.77445 -3.61606,-3.04548 -1.79335,0.69983 -2.37349,0.2974 -1.84973,-1.28307 0.93083,-2.80883 21.51013,-2.8086 24.27218,2.7e-4 0.9636,0.97993 3.24327,1.7817 5.06593,1.7817 1.82266,0 4.75075,1.98075 6.50687,4.40169 1.75612,2.42095 4.43197,5.50249 5.94634,6.84786 2.06076,1.83082 2.30899,2.99068 0.98679,4.61081 -1.12156,1.37431 -1.3802,5.50765 -0.70837,11.32072 0.65361,5.65552 0.40669,9.95435 -0.64585,11.24406 -0.9372,1.14838 -2.01252,3.71718 -2.38961,5.70836 -0.7173,3.78777 -4.54141,7.42909 -9.1143,8.67864 -1.75678,0.48004 -2.40556,-0.0221 -1.86829,-1.44592 z m 50.79587,-4.65927 c -3.7751,-3.99162 -3.35449,-5.86041 1.31908,-5.86041 3.12635,0 5.77887,6.05306 3.61502,8.24951 -0.75051,0.76182 -2.97085,-0.31327 -4.9341,-2.3891 z m 42.05155,-6.01224 c -2.50469,-4.92565 -2.04532,-8.50802 0.69989,-5.45775 1.61136,1.79042 3.82033,10.51117 2.66248,10.51117 -0.43597,0 -1.94904,-2.27405 -3.36237,-5.05342 z m -15.18582,-0.6651 c 0,-1.34793 0.72299,-2.45079 1.60664,-2.45079 0.88367,0 1.60664,1.10286 1.60664,2.45079 0,1.34794 -0.72297,2.45079 -1.60664,2.45079 -0.88365,0 -1.60664,-1.10285 -1.60664,-2.45079 z m 25.14161,-3.81635 c -2.58757,-2.90769 -5.80962,-13.83058 -3.33847,-11.31755 1.38892,1.41247 7.11631,-1.57586 7.11631,-3.71299 0,-2.10478 -5.96434,-2.02487 -7.254,0.0972 -1.45262,2.39025 -8.33408,1.10299 -12.22771,-2.28735 -1.82261,-1.58698 -4.33019,-2.48882 -5.57246,-2.00403 -1.66828,0.65098 -2.25864,-0.57473 -2.25864,-4.68945 0,-3.06393 -0.72298,-6.02521 -1.60664,-6.58059 -0.88364,-0.55538 -1.60663,-2.36424 -1.60663,-4.01969 0,-1.71051 -2.43829,-4.47291 -5.64793,-6.39874 -3.10636,-1.86387 -6.31497,-5.17304 -7.13027,-7.35373 -2.00667,-5.36747 -9.76512,-12.45428 -13.63453,-12.45428 -2.44951,0 -2.72092,0.4357 -1.22139,1.96063 1.06037,1.07835 1.92797,3.88121 1.92797,6.22857 0,2.34735 1.48911,7.40228 3.30916,11.23318 1.82004,3.8309 3.08526,8.56423 2.81161,10.51852 -0.62646,4.47384 -5.26046,4.69628 -5.48155,0.26315 -0.25521,-5.11713 -5.10256,-13.53013 -8.41098,-14.59798 -1.64287,-0.53027 -3.80427,-2.78809 -4.80306,-5.01738 -0.99882,-2.22928 -2.916,-4.05324 -4.26042,-4.05324 -1.34442,0 -2.4444,-0.57672 -2.4444,-1.28159 0,-0.70489 -2.16896,-2.58454 -4.8199,-4.17703 -2.65094,-1.59249 -4.8199,-2.27983 -4.8199,-1.52741 0,0.75242 -2.16897,2.20058 -4.8199,3.21818 -3.64445,1.39893 -4.81991,2.8809 -4.81991,6.07672 0,2.32461 -0.90373,4.33127 -2.0083,4.45922 -11.05642,1.28095 -11.87135,1.11264 -11.75944,-2.42874 0.0628,-1.98951 -0.76264,-3.34466 -1.89697,-3.11397 -1.10455,0.22467 -2.0083,-0.66852 -2.0083,-1.98484 0,-2.1459 -6.07481,-6.83154 -7.13052,-5.49991 -0.23581,0.29747 -1.23639,2.01133 -2.22348,3.80857 -1.52536,2.7773 -1.83063,2.04169 -2.03394,-4.90159 -0.34323,-11.72145 -0.31119,-11.81082 6.72175,-18.75173 5.22279,-5.15441 6.20995,-7.07594 5.37444,-10.4613 -1.25066,-5.06747 -3.48494,-7.06132 -8.74141,-7.80076 -2.96476,-0.41706 -3.89386,-1.42076 -3.54793,-3.83275 0.38937,-2.71502 0.18047,-2.85319 -1.23509,-0.81693 -1.00714,1.44877 -1.29029,5.70578 -0.69248,10.4119 0.72696,5.72278 0.41821,8.33385 -1.09815,9.2869 -2.7778,1.74585 -4.6728,0.4252 -4.6728,-3.25654 0,-1.63419 -1.08448,-3.88654 -2.40995,-5.00522 -1.32549,-1.11869 -2.40996,-3.73866 -2.40996,-5.82216 0,-5.08612 -2.8207,-6.61778 -3.61489,-1.96291 -0.60527,3.54746 -0.70963,3.51031 -2.52483,-0.89907 -1.0414,-2.52971 -1.89346,-7.07709 -1.89346,-10.10528 0,-3.02818 -0.80239,-7.57556 -1.78309,-10.10527 -1.5847,-4.08769 -3.1962,-14.942971 -3.2296,-21.755026 -0.0262,-5.325067 -1.58834,-9.886349 -3.0676,-8.956632 -2.23008,1.401622 -1.97762,-16.106434 0.26516,-18.387206 1.36181,-1.384894 2.3807,-1.290163 4.01658,0.373451 2.54736,2.590505 2.93372,4.755404 0.58527,3.27939 -0.88363,-0.555382 -1.60662,-0.408008 -1.60662,0.327491 0,0.735484 1.44598,2.255595 3.21326,3.377993 1.76731,1.122398 3.21328,3.051629 3.21328,4.287205 0,1.235559 1.86374,2.608789 4.14164,3.051608 5.62667,1.093838 8.42191,-4.683118 5.60832,-11.590808 -2.63858,-6.478018 -2.45878,-21.807808 0.32244,-27.493058 2.31077,-4.723592 2.68729,-25.049569 0.55633,-30.0338437 -0.59305,-1.3871643 0.7493,-10.3877861 2.98299,-20.0013773 2.2337,-9.613584 4.06127,-19.323391 4.06127,-21.577341 0,-3.029964 0.85064,-4.098094 3.26369,-4.098094 1.79504,0 3.68693,-1.121632 4.20423,-2.492496 0.7022,-1.860965 1.47757,-2.03923 3.06013,-0.703556 1.53043,1.291668 3.02827,1.294421 5.38839,0.0099 2.73264,-1.48724 4.65985,-0.776741 11.75079,4.332154 4.66514,3.361149 8.84356,6.500205 9.28538,6.975694 0.82456,0.887389 2.88237,1.534569 9.29444,2.923131 3.96323,0.858242 9.98519,-3.492084 9.98519,-7.213424 0,-3.01354 1.63993,-2.754569 4.19002,0.6617 2.86705,3.840849 2.75865,7.092598 -0.38869,11.66221 -5.86583,8.516556 -3.73329,37.231599 2.89595,38.99457 1.99401,0.530285 2.94253,2.301097 2.94253,5.493549 0,2.591059 0.75575,4.711028 1.67943,4.711028 2.54502,0 0.15118,10.90044 -4.66447,21.240203 -2.30191,4.942433 -4.38265,11.158459 -4.62384,13.813387 -0.24122,2.654944 -1.26441,5.595895 -2.27378,6.535449 -1.3103,1.21971 -1.5109,1.124161 -0.70135,-0.334028 0.62361,-1.12328 0.36818,-2.042327 -0.56761,-2.042327 -0.93581,0 -1.70147,0.72537 -1.70147,1.611936 0,0.886564 -2.58333,2.709612 -5.74071,4.051208 -3.15739,1.341598 -7.10976,4.108611 -8.78304,6.148906 -3.28295,4.003032 -4.21376,11.062018 -1.45867,11.062018 0.92983,0 -0.51615,4.08909 -3.21327,9.086856 -4.77415,8.84659 -6.28827,15.42106 -3.55152,15.42106 0.74378,0 2.25221,3.12477 3.35207,6.94392 1.09987,3.81915 3.09801,8.69069 4.44036,10.82563 1.86716,2.96962 1.98222,4.16984 0.48972,5.10789 -2.18993,1.37638 -0.77061,14.02085 1.75177,15.60619 0.80677,0.50704 1.46685,3.01887 1.46685,5.58182 0,3.17005 1.53826,5.97621 4.81123,8.77693 5.86315,5.01711 11.68043,7.1299 12.52626,4.54942 0.33546,-1.02347 1.27119,-1.44527 2.07936,-0.93732 2.40808,1.51351 1.66859,-1.23901 -1.19848,-4.46073 -1.46731,-1.64886 -2.09131,-3.54484 -1.38666,-4.21331 0.70464,-0.66845 1.60394,-0.29633 1.99843,0.82695 0.39449,1.1233 1.45733,2.04234 2.3619,2.04234 0.90454,0 1.24204,-1.06694 0.74999,-2.37095 -0.49208,-1.30404 0.43219,-4.03733 2.05391,-6.07401 2.64128,-3.31712 3.24613,-3.45314 5.80394,-1.30524 2.17352,1.82522 3.01576,1.91322 3.52702,0.36855 0.97474,-2.94503 5.82875,0.0821 10.24479,6.38887 2.27251,3.24555 3.66566,7.67507 3.72666,11.84884 0.088,6.02813 0.51996,6.71506 4.51564,7.1826 2.43003,0.28434 4.46805,-0.0833 4.52895,-0.81693 0.061,-0.73365 0.37444,-3.36909 0.69679,-5.85651 0.32725,-2.52502 -0.0764,-4.10616 -0.91401,-3.57978 -0.82506,0.51858 -1.50013,-0.20341 -1.50013,-1.60437 0,-3.513 3.3424,-3.21499 4.26696,0.38047 0.41406,1.61024 1.9731,3.07586 3.46452,3.25698 1.4914,0.18108 4.15763,0.5179 5.92493,0.74848 1.76729,0.23059 4.10408,1.27263 5.19286,2.31567 1.0888,1.04306 2.89626,2.22905 4.0166,2.63558 3.62061,1.31377 -0.3657,3.52723 -6.45272,3.58303 -4.21712,0.0388 -6.06797,0.83699 -6.43794,2.77689 -0.73546,3.85626 10.06726,17.90518 12.14399,15.79328 1.08579,-1.10421 1.98068,-1.04778 2.72174,0.17162 0.60724,0.99917 0.5081,1.68177 -0.22032,1.51683 -0.72841,-0.16493 -2.58963,0.26315 -4.13602,0.95125 -2.95178,1.31345 -3.98225,9.07079 -1.20497,9.07079 0.88366,0 1.60664,-0.73524 1.60664,-1.63386 0,-2.49509 3.42142,-1.94875 6.70169,1.07015 1.75792,1.61786 2.93812,1.946 2.93812,0.81694 0,-1.03792 0.80032,-1.88709 1.77852,-1.88709 1.07172,0 1.31018,1.13632 0.60002,2.85925 -0.64818,1.5726 -1.10223,5.43258 -1.00899,8.57777 0.0932,3.14518 -0.76053,7.40334 -1.89725,9.46258 -2.03007,3.67759 -2.11628,3.6884 -4.85677,0.6089 z m -32.2011,-16.70378 c -3.2557,-3.50787 -4.13336,-5.51278 -2.94312,-6.72318 1.19024,-1.21041 2.52229,-0.0853 4.46683,3.77305 1.52399,3.02377 3.57374,6.03796 4.55498,6.69815 1.02672,0.6908 1.09986,1.21102 0.17227,1.22541 -0.8865,0.0131 -3.69946,-2.2243 -6.25096,-4.97343 z M 524.01479,198.8045 c -4.14836,-4.66157 -3.46937,-10.08298 1.26281,-10.08298 4.97544,0 6.22687,2.09397 4.90612,8.20917 -1.21633,5.63178 -2.48246,6.01636 -6.16893,1.87381 z M 603.274,184.61206 c -1.30061,-1.59368 -1.32628,-3.13512 -0.0913,-5.48187 0.94496,-1.79561 1.71812,-5.84302 1.71812,-8.99424 0,-6.78419 2.50463,-9.15882 4.11745,-3.90375 0.62455,2.03495 1.82634,4.15193 2.67064,4.70442 0.8443,0.55244 1.68444,3.19808 1.86695,5.87919 0.25794,3.78896 -0.6486,5.44694 -4.07034,7.44402 -3.68724,2.15205 -4.69606,2.20925 -6.21158,0.35223 z m -142.05222,-6.62734 c -1.70142,-1.26519 -2.58679,-2.81559 -1.96752,-3.44535 0.61927,-0.62976 2.33092,0.0803 3.80367,1.57807 3.46836,3.52714 2.1707,4.84682 -1.83615,1.86728 z m 67.59851,-16.14391 c -2.33815,-2.20365 -4.25118,-4.54692 -4.25118,-5.20725 0,-0.66035 2.16895,0.91256 4.8199,3.49539 2.65094,2.5828 4.81991,4.92606 4.81991,5.20725 0,1.17923 -1.37509,0.28726 -5.38863,-3.49539 z m -3.73226,-26.05527 c 0.58574,-1.55226 -0.0145,-4.94494 -1.33362,-7.53928 -3.15482,-6.20415 -3.0259,-8.14694 0.54063,-8.14694 2.42972,0 2.9708,1.40944 3.12135,8.13067 0.10009,4.47186 -0.62237,8.63629 -1.60562,9.25428 -1.17287,0.73715 -1.42145,0.15292 -0.72274,-1.69873 z M 503.38161,-55.840014 c 1.15978,-0.471959 2.54552,-0.413922 3.07939,0.129006 0.53387,0.542919 -0.41507,0.92908 -2.10872,0.858129 -1.87165,-0.07838 -2.25234,-0.46556 -0.97067,-0.987117 z m 19.58086,-2.872099 c 0,-1.400977 0.72298,-2.547217 1.60664,-2.547217 0.88364,0 1.60663,0.691838 1.60663,1.537433 0,0.845594 -0.72299,1.991826 -1.60663,2.547205 -0.88366,0.555392 -1.60664,-0.136447 -1.60664,-1.537421 z m -16.6019,-16.707353 c -1.84865,-1.87998 -1.17001,-3.812347 1.33886,-3.812347 1.32548,0 2.40996,1.102855 2.40996,2.450791 0,2.551392 -1.90016,3.241527 -3.74882,1.361556 z m 14.29525,-68.011894 c 0.60333,-1.61135 1.5017,-2.51814 1.99636,-2.01509 0.49466,0.50303 7.7e-4,1.82141 -1.09698,2.92971 -1.58673,1.60162 -1.77127,1.41395 -0.89938,-0.91462 z"
     id="path5157"
     inkscape:connector-curvature="0" />
  <rect
     x="173.61612"
     y="485.25421"
     width="27.201225"
     height="21.618866"
     style="fill:url(#linearGradient5094);fill-opacity:1;stroke:none;stroke-width:0.93314981;stroke-linecap:square;stroke-linejoin:miter;stroke-miterlimit:10"
     id="rect378" />
  <rect
     x="173.61612"
     y="442.02524"
     width="27.357954"
     height="21.618866"
     style="fill:url(#linearGradient5086);fill-opacity:1;stroke:none;stroke-width:0.93314981;stroke-linecap:square;stroke-linejoin:miter;stroke-miterlimit:10"
     id="rect380" />
  <rect
     x="173.61612"
     y="398.78751"
     width="29.195169"
     height="21.618866"
     style="fill:url(#linearGradient5078);fill-opacity:1;stroke:none;stroke-width:0.93314981;stroke-linecap:square;stroke-linejoin:miter;stroke-miterlimit:10"
     id="rect382" />
  <rect
     x="173.61612"
     y="355.5585"
     width="36.517906"
     height="21.618866"
     style="fill:url(#linearGradient5070);fill-opacity:1;stroke:none;stroke-width:0.93314981;stroke-linecap:square;stroke-linejoin:miter;stroke-miterlimit:10"
     id="rect384" />
  <rect
     x="173.61612"
     y="312.3295"
     width="50.431976"
     height="21.618866"
     style="fill:url(#linearGradient5062);fill-opacity:1;stroke:none;stroke-width:0.93314981;stroke-linecap:square;stroke-linejoin:miter;stroke-miterlimit:10"
     id="rect386" />
  <rect
     x="173.61612"
     y="269.0918"
     width="53.070255"
     height="21.618866"
     style="fill:url(#linearGradient5054);fill-opacity:1;stroke:none;stroke-width:0.93314981;stroke-linecap:square;stroke-linejoin:miter;stroke-miterlimit:10"
     id="rect388" />
  <rect
     x="173.61612"
     y="225.86278"
     width="58.024635"
     height="21.618866"
     style="fill:url(#linearGradient5046);fill-opacity:1;stroke:none;stroke-width:0.93314981;stroke-linecap:square;stroke-linejoin:miter;stroke-miterlimit:10"
     id="rect390" />
  <rect
     x="173.61612"
     y="182.62505"
     width="60.59325"
     height="21.618866"
     style="fill:url(#linearGradient5038);fill-opacity:1;stroke:none;stroke-width:0.93314981;stroke-linecap:square;stroke-linejoin:miter;stroke-miterlimit:10"
     id="rect392" />
  <rect
     x="173.61612"
     y="139.39606"
     width="129.9024"
     height="21.618866"
     style="fill:url(#linearGradient5030);fill-opacity:1;stroke:none;stroke-width:0.93314981;stroke-linecap:square;stroke-linejoin:miter;stroke-miterlimit:10"
     id="rect394" />
  <rect
     x="173.61612"
     y="96.167061"
     width="343.54172"
     height="21.618866"
     style="fill:url(#linearGradient5022);fill-opacity:1;stroke:none;stroke-width:0.93314981;stroke-linecap:square;stroke-linejoin:miter;stroke-miterlimit:10;stroke-opacity:1"
     id="rect396" />
  <text
     x="214.48"
     y="518.14001"
     style="font-style:normal;font-variant:normal;font-weight:bold;font-stretch:normal;font-size:17.06933403px;font-family:Arial;-inkscape-font-specification:'Arial, Bold';font-variant-ligatures:normal;font-variant-caps:normal;font-variant-numeric:normal;font-feature-settings:normal;text-align:start;writing-mode:lr-tb;text-anchor:start;fill:#545454"
     textLength="47.470001"
     lengthAdjust="spacingAndGlyphs"
     id="text398"
     transform="matrix(1.0476729,0,0,0.87348951,-17.690437,48.806457)">
    <tspan
       sodipodi:role="line"
       id="tspan5177"
       x="214.48"
       y="518.14001">₱ 18278</tspan>
  </text>
  <text
     x="214.64999"
     y="468.64999"
     style="font-style:normal;font-variant:normal;font-weight:bold;font-stretch:normal;font-size:17.06933403px;font-family:Arial;-inkscape-font-specification:'Arial, Bold';font-variant-ligatures:normal;font-variant-caps:normal;font-variant-numeric:normal;font-feature-settings:normal;text-align:start;writing-mode:lr-tb;text-anchor:start;fill:#545454"
     textLength="47.470001"
     lengthAdjust="spacingAndGlyphs"
     id="text400"
     transform="matrix(1.0047784,0,0,0.87348951,-8.5084096,48.806457)">
    <tspan
       sodipodi:role="line"
       id="tspan5175"
       x="214.64999"
       y="468.64999">₱ 18381</tspan>
  </text>
  <text
     x="216.75999"
     y="419.16"
     style="font-style:normal;font-variant:normal;font-weight:bold;font-stretch:normal;font-size:17.06933403px;font-family:Arial;-inkscape-font-specification:'Arial, Bold';font-variant-ligatures:normal;font-variant-caps:normal;font-variant-numeric:normal;font-feature-settings:normal;text-align:start;writing-mode:lr-tb;text-anchor:start;fill:#545454"
     textLength="47.470001"
     lengthAdjust="spacingAndGlyphs"
     id="text402"
     transform="matrix(1.0469703,0,0,0.87348951,-17.941506,48.806457)">
    <tspan
       sodipodi:role="line"
       id="tspan5173"
       x="216.75999"
       y="419.16">₱ 19615</tspan>
  </text>
  <text
     x="225.17"
     y="369.66"
     style="font-style:normal;font-variant:normal;font-weight:bold;font-stretch:normal;font-size:17.06933403px;font-family:Arial;-inkscape-font-specification:'Arial, Bold';font-variant-ligatures:normal;font-variant-caps:normal;font-variant-numeric:normal;font-feature-settings:normal;text-align:start;writing-mode:lr-tb;text-anchor:start;fill:#545454"
     textLength="47.470001"
     lengthAdjust="spacingAndGlyphs"
     id="text404"
     transform="matrix(1.0822207,0,0,0.87348951,-27.365086,48.806457)">
    <tspan
       sodipodi:role="line"
       id="tspan5171"
       x="225.17"
       y="369.66">₱ 24535</tspan>
  </text>
  <text
     x="241.14999"
     y="320.17001"
     style="font-style:normal;font-variant:normal;font-weight:bold;font-stretch:normal;font-size:17.06933403px;font-family:Arial;-inkscape-font-specification:'Arial, Bold';font-variant-ligatures:normal;font-variant-caps:normal;font-variant-numeric:normal;font-feature-settings:normal;text-align:start;writing-mode:lr-tb;text-anchor:start;fill:#545454"
     textLength="47.470001"
     lengthAdjust="spacingAndGlyphs"
     id="text406"
     transform="matrix(1.1638898,0,0,0.87348951,-50.448533,48.806457)">
    <tspan
       sodipodi:role="line"
       id="tspan5169"
       x="241.14999"
       y="320.17001">₱ 33884</tspan>
  </text>
  <text
     x="244.17999"
     y="270.67999"
     style="font-style:normal;font-variant:normal;font-weight:bold;font-stretch:normal;font-size:17.06933403px;font-family:Arial;-inkscape-font-specification:'Arial, Bold';font-variant-ligatures:normal;font-variant-caps:normal;font-variant-numeric:normal;font-feature-settings:normal;text-align:start;writing-mode:lr-tb;text-anchor:start;fill:#545454"
     textLength="47.470001"
     lengthAdjust="spacingAndGlyphs"
     id="text408"
     transform="matrix(1.1185537,0,0,0.87348951,-40.261618,48.806457)">
    <tspan
       sodipodi:role="line"
       id="tspan5167"
       x="244.17999"
       y="270.67999">₱ 35659</tspan>
  </text>
  <text
     x="249.87"
     y="221.17999"
     style="font-style:normal;font-variant:normal;font-weight:bold;font-stretch:normal;font-size:17.06933403px;font-family:Arial;-inkscape-font-specification:'Arial, Bold';font-variant-ligatures:normal;font-variant-caps:normal;font-variant-numeric:normal;font-feature-settings:normal;text-align:start;writing-mode:lr-tb;text-anchor:start;fill:#545454"
     textLength="47.470001"
     lengthAdjust="spacingAndGlyphs"
     id="text410"
     transform="matrix(1.0117198,0,0,0.87348951,-14.965241,48.806457)">
    <tspan
       sodipodi:role="line"
       id="tspan5165"
       x="249.87"
       y="221.17999">₱ 38985</tspan>
  </text>
  <text
     x="252.82001"
     y="171.69"
     style="font-style:normal;font-variant:normal;font-weight:bold;font-stretch:normal;font-size:17.06933403px;font-family:Arial;-inkscape-font-specification:'Arial, Bold';font-variant-ligatures:normal;font-variant-caps:normal;font-variant-numeric:normal;font-feature-settings:normal;text-align:start;writing-mode:lr-tb;text-anchor:start;fill:#545454"
     textLength="47.470001"
     lengthAdjust="spacingAndGlyphs"
     id="text412"
     transform="matrix(1.0780515,0,0,0.87348951,-32.158951,48.806457)">
    <tspan
       sodipodi:role="line"
       id="tspan5163"
       x="252.82001"
       y="171.69">₱ 40711</tspan>
  </text>
  <text
     x="332.42999"
     y="122.19"
     style="font-style:normal;font-variant:normal;font-weight:bold;font-stretch:normal;font-size:17.06933403px;font-family:Arial;-inkscape-font-specification:'Arial, Bold';font-variant-ligatures:normal;font-variant-caps:normal;font-variant-numeric:normal;font-feature-settings:normal;text-align:start;writing-mode:lr-tb;text-anchor:start;fill:#545454"
     textLength="47.470001"
     lengthAdjust="spacingAndGlyphs"
     id="text414"
     transform="matrix(1.0469703,0,0,0.87348951,-38.328624,48.806457)">
    <tspan
       sodipodi:role="line"
       id="tspan5161"
       x="332.42999"
       y="122.19">₱ 87285</tspan>
  </text>
  <text
     x="579.21002"
     y="72.699997"
     style="font-style:normal;font-variant:normal;font-weight:bold;font-stretch:normal;font-size:17.06933403px;font-family:Arial;-inkscape-font-specification:'Arial, Bold';font-variant-ligatures:normal;font-variant-caps:normal;font-variant-numeric:normal;font-feature-settings:normal;text-align:start;writing-mode:lr-tb;text-anchor:start;fill:#545454"
     textLength="56.970001"
     lengthAdjust="spacingAndGlyphs"
     id="text416"
     transform="matrix(0.98839553,0,0,0.87348951,-47.891178,48.806457)">
    <tspan
       sodipodi:role="line"
       id="tspan5159"
       x="579.21002"
       y="72.699997">₱ 230833</tspan>
  </text>
  <text
     x="5.48"
     y="517.03998"
     style="font-style:normal;font-variant:normal;font-weight:bold;font-stretch:normal;font-size:21.43453026px;font-family:Arial;-inkscape-font-specification:'Arial, Bold';font-variant-ligatures:normal;font-variant-caps:normal;font-variant-numeric:normal;font-feature-settings:normal;text-align:start;writing-mode:lr-tb;text-anchor:start;fill:#545454"
     textLength="94.169998"
     lengthAdjust="spacingAndGlyphs"
     id="text418"
     transform="matrix(1.1340489,0,0,0.87348951,6.2226092,49.70279)">10. Pasay City</text>
  <text
     x="5.48"
     y="467.54999"
     style="font-style:normal;font-variant:normal;font-weight:bold;font-stretch:normal;font-size:21.43453026px;font-family:Arial;-inkscape-font-specification:'Arial, Bold';font-variant-ligatures:normal;font-variant-caps:normal;font-variant-numeric:normal;font-feature-settings:normal;text-align:start;writing-mode:lr-tb;text-anchor:start;fill:#545454"
     textLength="108.92"
     lengthAdjust="spacingAndGlyphs"
     id="text420"
     transform="matrix(1.1340489,0,0,0.87348951,6.2226092,49.70279)">9. Caloocan City</text>
  <text
     x="5.48"
     y="418.06"
     style="font-style:normal;font-variant:normal;font-weight:bold;font-stretch:normal;font-size:21.43453026px;font-family:Arial;-inkscape-font-specification:'Arial, Bold';font-variant-ligatures:normal;font-variant-caps:normal;font-variant-numeric:normal;font-feature-settings:normal;text-align:start;writing-mode:lr-tb;text-anchor:start;fill:#545454"
     textLength="140.05"
     lengthAdjust="spacingAndGlyphs"
     id="text422"
     transform="matrix(1.1340489,0,0,0.87348951,6.2226092,49.70279)">8. Compostela Valley</text>
  <text
     x="5.48"
     y="368.56"
     style="font-style:normal;font-variant:normal;font-weight:bold;font-stretch:normal;font-size:21.43453026px;font-family:Arial;-inkscape-font-specification:'Arial, Bold';font-variant-ligatures:normal;font-variant-caps:normal;font-variant-numeric:normal;font-feature-settings:normal;text-align:start;writing-mode:lr-tb;text-anchor:start;fill:#545454"
     textLength="91.790001"
     lengthAdjust="spacingAndGlyphs"
     id="text424"
     transform="matrix(1.1340489,0,0,0.87348951,6.2226092,49.70279)">7. Taguig City</text>
  <text
     x="5.48"
     y="319.07001"
     style="font-style:normal;font-variant:normal;font-weight:bold;font-stretch:normal;font-size:21.43453026px;font-family:Arial;-inkscape-font-specification:'Arial, Bold';font-variant-ligatures:normal;font-variant-caps:normal;font-variant-numeric:normal;font-feature-settings:normal;text-align:start;writing-mode:lr-tb;text-anchor:start;fill:#545454"
     textLength="80.900002"
     lengthAdjust="spacingAndGlyphs"
     id="text426"
     transform="matrix(1.1340489,0,0,0.87348951,6.2226092,49.70279)">6. Cebu City</text>
  <text
     x="5.48"
     y="269.57999"
     style="font-style:normal;font-variant:normal;font-weight:bold;font-stretch:normal;font-size:21.43453026px;font-family:Arial;-inkscape-font-specification:'Arial, Bold';font-variant-ligatures:normal;font-variant-caps:normal;font-variant-numeric:normal;font-feature-settings:normal;text-align:start;writing-mode:lr-tb;text-anchor:start;fill:#545454"
     textLength="112.81"
     lengthAdjust="spacingAndGlyphs"
     id="text428"
     transform="matrix(1.1340489,0,0,0.87348951,6.2226092,49.70279)">5. Cebu province</text>
  <text
     x="5.48"
     y="220.08"
     style="font-style:normal;font-variant:normal;font-weight:bold;font-stretch:normal;font-size:21.43453026px;font-family:Arial;-inkscape-font-specification:'Arial, Bold';font-variant-ligatures:normal;font-variant-caps:normal;font-variant-numeric:normal;font-feature-settings:normal;text-align:start;writing-mode:lr-tb;text-anchor:start;fill:#545454"
     textLength="83.25"
     lengthAdjust="spacingAndGlyphs"
     id="text430"
     transform="matrix(1.1340489,0,0,0.87348951,6.2226092,49.70279)">4. Pasig City</text>
  <text
     x="5.48"
     y="170.59"
     style="font-style:normal;font-variant:normal;font-weight:bold;font-stretch:normal;font-size:21.43453026px;font-family:Arial;-inkscape-font-specification:'Arial, Bold';font-variant-ligatures:normal;font-variant-caps:normal;font-variant-numeric:normal;font-feature-settings:normal;text-align:start;writing-mode:lr-tb;text-anchor:start;fill:#545454"
     textLength="106.57"
     lengthAdjust="spacingAndGlyphs"
     id="text432"
     transform="matrix(1.1340489,0,0,0.87348951,6.2226092,49.70279)">3. City of Manila</text>
  <text
     x="5.48"
     y="121.1"
     style="font-style:normal;font-variant:normal;font-weight:bold;font-stretch:normal;font-size:21.43453026px;font-family:Arial;-inkscape-font-specification:'Arial, Bold';font-variant-ligatures:normal;font-variant-caps:normal;font-variant-numeric:normal;font-feature-settings:normal;text-align:start;writing-mode:lr-tb;text-anchor:start;fill:#545454"
     textLength="97.230003"
     lengthAdjust="spacingAndGlyphs"
     id="text434"
     transform="matrix(1.1340489,0,0,0.87348951,6.2226092,49.70279)">2. Quezon City</text>
  <text
     x="5.48"
     y="71.599998"
     style="font-style:normal;font-variant:normal;font-weight:bold;font-stretch:normal;font-size:21.43453026px;font-family:Arial;-inkscape-font-specification:'Arial, Bold';font-variant-ligatures:normal;font-variant-caps:normal;font-variant-numeric:normal;font-feature-settings:normal;text-align:start;writing-mode:lr-tb;text-anchor:start;fill:#545454"
     textLength="89.480003"
     lengthAdjust="spacingAndGlyphs"
     id="text436"
     transform="matrix(1.1340489,0,0,0.87348951,6.2226092,49.70279)">1. Makati City</text>
  <polyline
     points="176.10,544.47 176.10,541.73 "
     style="fill:none;stroke:#333333;stroke-width:1.07000005;stroke-linecap:butt;stroke-linejoin:round;stroke-miterlimit:10"
     id="polyline438"
     transform="matrix(0.87071784,0,0,0.87348951,20.282691,48.806457)" />
  <polyline
     points="261.57,544.47 261.57,541.73 "
     style="fill:none;stroke:#333333;stroke-width:1.07000005;stroke-linecap:butt;stroke-linejoin:round;stroke-miterlimit:10"
     id="polyline440"
     transform="matrix(0.87071784,0,0,0.87348951,20.282691,48.806457)" />
  <polyline
     points="347.03,544.47 347.03,541.73 "
     style="fill:none;stroke:#333333;stroke-width:1.07000005;stroke-linecap:butt;stroke-linejoin:round;stroke-miterlimit:10"
     id="polyline442"
     transform="matrix(0.87071784,0,0,0.87348951,20.282691,48.806457)" />
  <polyline
     points="432.49,544.47 432.49,541.73 "
     style="fill:none;stroke:#333333;stroke-width:1.07000005;stroke-linecap:butt;stroke-linejoin:round;stroke-miterlimit:10"
     id="polyline444"
     transform="matrix(0.87071784,0,0,0.87348951,20.282691,48.806457)" />
  <polyline
     points="517.96,544.47 517.96,541.73 "
     style="fill:none;stroke:#333333;stroke-width:1.07000005;stroke-linecap:butt;stroke-linejoin:round;stroke-miterlimit:10"
     id="polyline446"
     transform="matrix(0.87071784,0,0,0.87348951,20.282691,48.806457)" />
  <text
     x="173.66"
     y="552.96002"
     style="font-size:8.80000019px;font-family:Arial;fill:#4d4d4d"
     textLength="4.8899999"
     lengthAdjust="spacingAndGlyphs"
     id="text452"
     transform="matrix(0.87071784,0,0,0.87348951,20.282691,48.806457)">0</text>
  <text
     x="249.33"
     y="552.96002"
     style="font-size:8.80000019px;font-family:Arial;fill:#4d4d4d"
     textLength="24.469999"
     lengthAdjust="spacingAndGlyphs"
     id="text454"
     transform="matrix(0.87071784,0,0,0.87348951,20.282691,48.806457)">50000</text>
  <text
     x="332.35001"
     y="552.96002"
     style="font-size:8.80000019px;font-family:Arial;fill:#4d4d4d"
     textLength="29.360001"
     lengthAdjust="spacingAndGlyphs"
     id="text456"
     transform="matrix(0.87071784,0,0,0.87348951,20.282691,48.806457)">100000</text>
  <text
     x="417.81"
     y="552.96002"
     style="font-size:8.80000019px;font-family:Arial;fill:#4d4d4d"
     textLength="29.360001"
     lengthAdjust="spacingAndGlyphs"
     id="text458"
     transform="matrix(0.87071784,0,0,0.87348951,20.282691,48.806457)">150000</text>
  <text
     x="503.26999"
     y="552.96002"
     style="font-size:8.80000019px;font-family:Arial;fill:#4d4d4d"
     textLength="29.360001"
     lengthAdjust="spacingAndGlyphs"
     id="text460"
     transform="matrix(0.87071784,0,0,0.87348951,20.282691,48.806457)">200000</text>
  <text
     x="293.57001"
     y="567.57001"
     style="font-style:italic;font-size:14px;font-family:Arial"
     textLength="277.84"
     lengthAdjust="spacingAndGlyphs"
     id="text466"
     transform="matrix(0.87071784,0,0,0.87348951,20.282691,48.806457)">Billions of philippine pesos in revenue (2018)</text>
  <text
     x="150.47"
     y="25.52"
     style="font-style:normal;font-variant:normal;font-weight:bold;font-stretch:normal;font-size:27.30173716px;font-family:sans-serif;-inkscape-font-specification:'sans-serif, Bold';font-variant-ligatures:normal;font-variant-caps:normal;font-variant-numeric:normal;font-feature-settings:normal;text-align:start;writing-mode:lr;text-anchor:start;fill:#545454;"
     textLength="511.85999"
     lengthAdjust="spacingAndGlyphs"
     id="text468"
     transform="matrix(1.3685873,0,0,1.0037993,-195.64686,10.101757)">
    <tspan
       sodipodi:role="line"
       id="tspan483"
       x="150.47"
       y="25.52">Top 10 richest LGUs in</tspan>
    <tspan
       sodipodi:role="line"
       id="tspan485"
       x="150.47"
       y="72.186668">the Philippines</tspan>
  </text>
  <path
     style="fill:none;stroke:#be0000;stroke-width:1.84495306px;stroke-linecap:butt;stroke-linejoin:miter;stroke-miterlimit:10;stroke-opacity:1"
     d="m 173.18468,94.31023 0.43143,430.08507"
     id="path5100"
     inkscape:connector-curvature="0" />
  <path
     style="fill:none;stroke:#454545;stroke-width:1.1176759px;stroke-linecap:butt;stroke-linejoin:miter;stroke-miterlimit:10;stroke-opacity:0.26086958"
     d="m 247.87804,94.309711 0.15832,430.085579"
     id="path5100-9"
     inkscape:connector-curvature="0" />
  <path
     style="fill:none;stroke:#454545;stroke-width:1.1176759px;stroke-linecap:butt;stroke-linejoin:miter;stroke-miterlimit:10;stroke-opacity:0.26086958"
     d="M 322.28958,94.309708 322.4479,524.39529"
     id="path5100-9-9"
     inkscape:connector-curvature="0" />
  <path
     style="fill:none;stroke:#454545;stroke-width:1.1176759px;stroke-linecap:butt;stroke-linejoin:miter;stroke-miterlimit:10;stroke-opacity:0.26086958"
     d="m 396.70113,94.309711 0.15832,430.085579"
     id="path5100-9-1"
     inkscape:connector-curvature="0" />
  <path
     style="fill:none;stroke:#454545;stroke-width:1.1176759px;stroke-linecap:butt;stroke-linejoin:miter;stroke-miterlimit:10;stroke-opacity:0.26086958"
     d="M 471.12138,94.309702 471.2797,524.39529"
     id="path5100-9-5"
     inkscape:connector-curvature="0" />
</svg>
