<?xml version="1.0" encoding="UTF-8" standalone="no"?>
<svg
   xmlns:dc="http://purl.org/dc/elements/1.1/"
   xmlns:cc="http://creativecommons.org/ns#"
   xmlns:rdf="http://www.w3.org/1999/02/22-rdf-syntax-ns#"
   xmlns:svg="http://www.w3.org/2000/svg"
   xmlns="http://www.w3.org/2000/svg"
   height="65.991776"
   width="66.091774"
   xml:space="preserve"
   viewBox="0 0 66.091774 65.991775"
   y="0px"
   x="0px"
   id="Layer_1"
   version="1.1"><metadata
     id="metadata11"><rdf:RDF><cc:Work
         rdf:about=""><dc:format>image/svg+xml</dc:format><dc:type
           rdf:resource="http://purl.org/dc/dcmitype/StillImage" /><dc:title></dc:title></cc:Work></rdf:RDF></metadata><defs
     id="defs9" /><style
     id="style2"
     type="text/css">
	.st0{fill:#333333;}
</style><g
     transform="translate(-15,-15.008222)"
     id="XMLID_2_"><path
       style="fill:#333333;stroke:#333333;stroke-opacity:1;fill-opacity:1;stroke-width:2.3;stroke-miterlimit:4;stroke-dasharray:none"
       d="M 62.4,21.1 C 59.3,18 55.3,17.1 53.3,19 L 53,19.4 c -1.9,1.9 -1,6 2.1,9.1 l 0.4,0.4 -13.8,13.6 C 37.1,38.3 31.5,37 28.8,39.7 26,42.5 27.4,48.5 32.1,53.2 l 3,4.5 -16.9,18.4 -0.2,1.9 1.9,-0.2 19.9,-16.9 3,3 c 4.7,4.7 10.7,6.1 13.5,3.3 2.7,-2.7 1.4,-8.3 -2.8,-12.9 L 67.2,40.6 67.6,41 c 3.1,3.1 7.1,4 9.1,2.1 l 0.4,-0.4 c 1.9,-1.9 1,-6 -2.1,-9.1 z"
       class="st0"
       id="XMLID_4_" /></g></svg>