<?xml version="1.0" encoding="UTF-8" standalone="no"?>
<svg
   xmlns:dc="http://purl.org/dc/elements/1.1/"
   xmlns:cc="http://creativecommons.org/ns#"
   xmlns:rdf="http://www.w3.org/1999/02/22-rdf-syntax-ns#"
   xmlns:svg="http://www.w3.org/2000/svg"
   xmlns="http://www.w3.org/2000/svg"
   xml:space="preserve"
   style="enable-background:new 0 0 452.025 452.025;"
   viewBox="0 0 452.025 452.025"
   y="0px"
   x="0px"
   id="Capa_1"
   version="1.1"><metadata
     id="metadata51"><rdf:RDF><cc:Work
         rdf:about=""><dc:format>image/svg+xml</dc:format><dc:type
           rdf:resource="http://purl.org/dc/dcmitype/StillImage" /><dc:title></dc:title></cc:Work></rdf:RDF></metadata><defs
     id="defs49" /><g
     id="g44"><g
       id="g42"><path
         id="path2"
         d="M362.612,34.125h-55.2l13.6-13.6c4.7-4.7,4.7-12.3,0-17s-12.3-4.7-17,0l-34,34.1c-2.3,2.3-3.5,5.3-3.5,8.5    s1.3,6.2,3.5,8.5l34.1,34.1c2.3,2.3,5.4,3.5,8.5,3.5s6.1-1.2,8.5-3.5c4.7-4.7,4.7-12.3,0-17l-13.6-13.6h55.2c35.9,0,65,29.2,65,65    v40.3c0,6.6,5.4,12,12,12s12-5.4,12-12v-40.3C451.712,74.025,411.712,34.125,362.612,34.125z" /><path
         id="path4"
         d="M438.812,230.925h-197.1c-6.6,0-12,5.4-12,12v197.1c0,6.6,5.4,12,12,12h197.1c6.6,0,12-5.4,12-12v-197.1    C450.812,236.225,445.412,230.925,438.812,230.925z M426.812,428.025h-173.1v-173.1h173.1L426.812,428.025L426.812,428.025z" /><path
         id="path6"
         d="M147.912,363.325c-4.7-4.7-12.3-4.7-17,0c-4.7,4.7-4.7,12.3,0,17l13.6,13.6h-55.2c-35.9,0-65-29.2-65-65v-40.3    c0-6.6-5.4-12-12-12s-12,5.4-12,12v40.3c0,49.1,39.9,89,89,89h55.2l-13.6,13.6c-4.7,4.7-4.7,12.3,0,17c2.3,2.3,5.4,3.5,8.5,3.5    s6.1-1.2,8.5-3.5l34.1-34.1c4.7-4.7,4.7-12.3,0-17L147.912,363.325z" /><path
         id="path8"
         d="M 208.95764,0.02499991 H 11.857636 c -6.5999999,0 -11.99999991,5.39999999 -11.99999991,12.00000009 v 197.1 c 0,6.6 5.40000001,12 11.99999991,12 H 208.95764 c 6.6,0 12,-5.4 12,-12 v -197.1 c 0,-6.7000001 -5.4,-12.00000009 -12,-12.00000009 z m -12,197.10000009 H 23.857636 V 24.025 H 196.95764 Z" /></g></g></svg>